<?xml version="1.0" encoding="UTF-8" standalone="no"?>
<svg
   xmlns:dc="http://purl.org/dc/elements/1.1/"
   xmlns:cc="http://creativecommons.org/ns#"
   xmlns:rdf="http://www.w3.org/1999/02/22-rdf-syntax-ns#"
   xmlns:svg="http://www.w3.org/2000/svg"
   xmlns="http://www.w3.org/2000/svg"
   xmlns:sodipodi="http://sodipodi.sourceforge.net/DTD/sodipodi-0.dtd"
   xmlns:inkscape="http://www.inkscape.org/namespaces/inkscape"
   version="1.1"
   id="Layer_1"
   x="0px"
   y="0px"
   viewBox="0 0 512 512"
   style="enable-background:new 0 0 512 512;"
   xml:space="preserve"
   sodipodi:docname="arrow.svg"
   inkscape:version="1.0.1 (3bc2e813f5, 2020-09-07)"><metadata
   id="metadata43"><rdf:RDF><cc:Work
       rdf:about=""><dc:format>image/svg+xml</dc:format><dc:type
         rdf:resource="http://purl.org/dc/dcmitype/StillImage" /><dc:title></dc:title></cc:Work></rdf:RDF></metadata><defs
   id="defs41" /><sodipodi:namedview
   pagecolor="#ffffff"
   bordercolor="#666666"
   borderopacity="1"
   objecttolerance="10"
   gridtolerance="10"
   guidetolerance="10"
   inkscape:pageopacity="0"
   inkscape:pageshadow="2"
   inkscape:window-width="1920"
   inkscape:window-height="1056"
   id="namedview39"
   showgrid="false"
   inkscape:zoom="0.27917293"
   inkscape:cx="-355.01564"
   inkscape:cy="103.08095"
   inkscape:window-x="0"
   inkscape:window-y="0"
   inkscape:window-maximized="0"
   inkscape:current-layer="Layer_1" />
<path
   style="fill:#314e55"
   d="M 256,0 C 397.157,0 512,114.843 512,256 512,397.157 397.157,512 256,512 114.843,512 0,397.157 0,256 0,114.843 114.843,0 256,0 Z"
   id="path2" />
<path
   style="fill:#73c9c9"
   d="M 256,493.037 C 125.296,493.037 18.963,386.704 18.963,256 18.963,125.296 125.296,18.963 256,18.963 386.704,18.963 493.037,125.296 493.037,256 493.037,386.704 386.704,493.037 256,493.037 Z"
   id="path4" />
<path
   style="fill:#314e55"
   d="m 219.5,149.741 c 3.704,-3.704 9.704,-3.704 13.407,0 l 99.556,99.556 c 3.704,3.704 3.704,9.704 0,13.407 l -99.556,99.556 c -1.852,1.852 -4.278,2.778 -6.704,2.778 -2.426,0 -4.852,-0.926 -6.704,-2.778 -3.704,-3.704 -3.704,-9.704 0,-13.407 L 312.352,256 219.5,163.148 c -3.704,-3.704 -3.704,-9.703 0,-13.407 z"
   id="path6" />
<g
   id="g8">
</g>
<g
   id="g10">
</g>
<g
   id="g12">
</g>
<g
   id="g14">
</g>
<g
   id="g16">
</g>
<g
   id="g18">
</g>
<g
   id="g20">
</g>
<g
   id="g22">
</g>
<g
   id="g24">
</g>
<g
   id="g26">
</g>
<g
   id="g28">
</g>
<g
   id="g30">
</g>
<g
   id="g32">
</g>
<g
   id="g34">
</g>
<g
   id="g36">
</g>
</svg>
