<?xml version="1.0" standalone="no"?>
<!DOCTYPE svg PUBLIC "-//W3C//DTD SVG 20010904//EN"
 "http://www.w3.org/TR/2001/REC-SVG-20010904/DTD/svg10.dtd">
<svg version="1.0" xmlns="http://www.w3.org/2000/svg"
 width="667.000000pt" height="294.000000pt" viewBox="0 0 667.000000 294.000000"
 preserveAspectRatio="xMidYMid meet">
<metadata>
Created by potrace 1.16, written by Peter Selinger 2001-2019
</metadata>
<g transform="translate(0.000000,294.000000) scale(0.100000,-0.100000)"
fill="#000000" stroke="none">
<path d="M2556 2642 c-9 -14 -6 -537 3 -551 5 -7 17 -11 27 -9 17 3 19 16 24
140 4 118 8 140 26 165 25 34 92 58 139 49 36 -7 85 -55 86 -84 0 -9 1 -73 2
-142 l2 -125 25 0 25 0 0 145 c0 128 -2 149 -20 180 -29 48 -75 73 -139 73
-55 0 -86 -12 -123 -46 l-23 -20 0 111 c0 62 -4 112 -9 112 -5 0 -16 3 -24 6
-8 3 -18 1 -21 -4z"/>
<path d="M3059 2624 c-9 -11 -10 -20 -2 -32 24 -39 82 -15 68 28 -8 24 -47 27
-66 4z"/>
<path d="M688 2606 c-85 -31 -121 -77 -121 -154 0 -79 48 -119 184 -153 92
-23 119 -40 119 -76 0 -39 -59 -59 -137 -45 -34 5 -76 17 -94 26 -18 9 -35 16
-39 16 -4 0 -15 -19 -26 -41 -18 -41 -18 -42 1 -56 56 -40 207 -58 293 -34
120 33 166 166 85 243 -32 31 -58 42 -151 63 -83 19 -112 38 -112 70 0 54 109
77 195 41 21 -9 41 -16 45 -16 8 0 43 80 38 85 -46 39 -212 57 -280 31z"/>
<path d="M1173 2479 c-23 -4 -50 -12 -60 -18 -44 -25 -46 -28 -34 -49 l11 -21
37 22 c53 31 142 31 176 -1 24 -23 39 -72 28 -90 -3 -5 -47 -11 -96 -14 -135
-8 -175 -34 -175 -117 0 -102 160 -150 250 -75 l30 26 0 -31 c0 -31 13 -39 38
-22 22 13 12 285 -11 328 -29 55 -102 78 -194 62z m158 -221 c7 -70 -19 -111
-83 -130 -51 -15 -114 3 -130 38 -15 33 0 75 32 91 34 17 180 17 181 1z"/>
<path d="M1690 2478 c-19 -5 -51 -22 -71 -38 l-36 -28 2 34 c1 30 -2 34 -25
34 l-26 0 0 -270 1 -270 28 0 27 0 0 106 0 106 35 -30 c79 -70 219 -47 276 45
49 80 40 196 -21 259 -48 48 -123 69 -190 52z m136 -73 c40 -30 58 -82 52
-146 -10 -104 -123 -161 -217 -111 -84 45 -97 188 -23 255 47 43 134 43 188 2z"/>
<path d="M2191 2474 c-24 -7 -56 -25 -72 -40 l-28 -27 2 34 c2 26 -2 34 -17
37 -10 2 -22 -2 -27 -10 -5 -7 -9 -129 -9 -270 l0 -258 30 0 30 0 0 106 0 106
35 -30 c83 -73 222 -47 281 53 28 49 35 136 14 190 -34 90 -140 139 -239 109z
m137 -60 c61 -40 82 -146 42 -212 -41 -68 -129 -91 -199 -54 -84 45 -97 188
-23 255 42 38 130 44 180 11z"/>
<path d="M3662 2477 c-57 -11 -117 -70 -133 -129 -24 -92 14 -197 88 -241 67
-39 178 -32 237 14 21 17 24 23 14 38 -10 17 -13 17 -52 -5 -97 -56 -216 -12
-240 89 l-6 27 171 0 171 0 -7 33 c-14 70 -28 97 -65 131 -22 20 -50 38 -62
40 -53 11 -75 11 -116 3z m115 -54 c37 -17 73 -65 73 -95 0 -16 -13 -18 -141
-18 l-140 0 6 23 c27 90 118 130 202 90z"/>
<path d="M3062 2283 l3 -198 25 0 25 0 3 198 2 197 -31 0 -31 0 4 -197z"/>
<path d="M3272 2283 c3 -195 3 -196 26 -199 22 -4 22 -3 22 121 0 104 3 132
19 163 20 39 55 62 95 62 22 0 36 16 36 42 0 22 -90 1 -121 -28 l-29 -28 0 32
c0 28 -4 32 -25 32 l-25 0 2 -197z"/>
<path d="M1190 1530 l0 -280 25 0 25 0 0 280 0 280 -25 0 -25 0 0 -280z"/>
<path d="M1864 1533 l1 -278 25 0 c22 0 25 4 25 33 0 33 9 42 18 18 9 -22 90
-56 135 -56 133 0 216 109 190 249 -16 89 -94 151 -188 151 -55 0 -122 -28
-139 -57 -8 -13 -10 14 -11 100 l0 117 -29 0 -28 0 1 -277z m279 50 c90 -52
89 -209 0 -265 -71 -43 -167 -19 -204 52 -26 47 -25 125 1 168 39 64 134 85
203 45z"/>
<path d="M2820 1530 l0 -280 25 0 25 0 0 280 0 280 -25 0 -25 0 0 -280z"/>
<path d="M747 1773 c-178 -60 -238 -293 -113 -440 81 -96 276 -118 397 -44
l32 20 -1 103 c-1 57 -2 107 -2 111 0 4 -24 7 -52 5 l-53 -3 -3 -82 c-3 -81
-3 -82 -32 -88 -86 -19 -163 3 -203 59 -33 46 -32 157 2 205 51 71 164 88 244
35 l40 -26 36 37 36 36 -30 25 c-71 58 -204 79 -298 47z"/>
<path d="M1464 1631 c-112 -52 -145 -207 -67 -309 57 -76 188 -95 271 -40 112
75 113 261 1 335 -55 36 -145 42 -205 14z m166 -46 c64 -33 89 -143 49 -215
-55 -97 -198 -98 -250 0 -38 70 -17 173 43 210 40 24 116 27 158 5z"/>
<path d="M2411 1634 c-53 -22 -62 -33 -50 -55 10 -19 11 -19 49 1 54 27 138
27 173 0 26 -20 47 -84 33 -98 -4 -4 -42 -8 -84 -9 -111 -3 -138 -10 -166 -44
-30 -35 -33 -76 -10 -120 36 -70 182 -81 244 -19 l20 20 0 -30 c0 -26 4 -30
26 -30 l26 0 -4 158 c-3 176 -12 202 -75 228 -42 18 -139 17 -182 -2z m193
-200 c21 -8 21 -58 -1 -91 -9 -14 -32 -32 -50 -39 -94 -40 -183 13 -153 90 10
28 28 34 115 39 33 2 63 4 67 5 3 1 13 -1 22 -4z"/>
<path d="M2820 965 c-6 -8 -10 -22 -8 -32 4 -25 48 -30 65 -8 26 37 -27 76
-57 40z"/>
<path d="M756 922 c-14 -28 -166 -364 -207 -459 l-18 -43 62 0 62 0 21 53 22
52 124 3 124 3 23 -56 23 -55 63 0 64 0 -20 48 c-11 26 -64 144 -117 262 l-97
215 -57 3 c-54 3 -58 2 -72 -26z m108 -192 c20 -46 36 -89 36 -95 0 -7 -28
-10 -77 -9 -43 1 -79 2 -80 3 -1 0 11 33 28 71 16 39 34 82 40 97 5 14 11 24
14 22 2 -3 20 -42 39 -89z"/>
<path d="M4950 685 l0 -265 175 0 175 0 0 25 0 25 -150 0 -150 0 0 240 0 240
-25 0 -25 0 0 -265z"/>
<path d="M5390 685 l0 -265 175 0 175 0 0 25 0 25 -145 0 -145 0 0 240 0 240
-30 0 -30 0 0 -265z"/>
<path d="M5953 934 c-182 -67 -230 -309 -89 -446 69 -67 213 -90 306 -50 61
26 79 48 58 69 -14 14 -19 13 -44 -5 -84 -60 -222 -46 -290 30 -86 94 -72 256
29 329 77 56 187 56 265 0 28 -20 30 -20 46 -2 15 16 15 19 -1 33 -60 52 -196
73 -280 42z"/>
<path d="M3470 873 c4 -57 1 -63 -30 -63 -16 0 -30 -4 -30 -10 0 -5 0 -13 0
-17 -1 -5 14 -10 31 -13 l33 -5 0 -143 1 -144 33 -29 c26 -23 41 -29 80 -29
54 0 86 17 77 41 -5 13 -12 14 -44 6 -32 -9 -44 -8 -65 6 -26 17 -26 18 -26
157 l0 140 61 0 c57 0 60 1 57 22 -3 20 -9 23 -48 24 -71 1 -70 1 -70 44 0 38
-2 40 -31 40 -27 0 -30 -3 -29 -27z"/>
<path d="M1225 805 c-53 -19 -75 -48 -75 -99 1 -66 25 -86 137 -112 37 -8 78
-22 91 -30 28 -18 29 -55 1 -80 -28 -25 -139 -25 -186 -1 -40 21 -40 21 -53
-3 -10 -19 -6 -23 36 -42 91 -40 218 -23 258 34 18 25 21 80 7 107 -12 22 -69
47 -141 61 -74 15 -100 33 -100 70 0 41 37 64 104 63 29 0 66 -7 82 -16 28
-14 31 -14 42 4 17 27 17 27 -40 44 -63 18 -111 19 -163 0z"/>
<path d="M1583 801 c-45 -21 -61 -43 -65 -89 -5 -67 34 -97 157 -122 67 -14
95 -33 95 -65 0 -33 -31 -55 -86 -61 -45 -5 -78 2 -146 30 -11 5 -20 1 -28
-14 -10 -19 -7 -23 36 -42 92 -40 218 -23 258 34 16 23 21 73 10 103 -9 23
-70 51 -139 64 -77 14 -105 33 -105 71 0 41 36 63 104 62 30 0 67 -7 83 -15
27 -14 30 -14 41 4 17 27 17 27 -40 44 -68 20 -124 19 -175 -4z"/>
<path d="M2012 809 c-18 -6 -50 -27 -71 -48 -98 -98 -59 -290 67 -332 143 -47
273 42 273 187 0 147 -123 235 -269 193z m164 -70 c55 -50 68 -123 34 -197
-46 -103 -202 -104 -255 -2 -20 39 -19 118 3 158 28 53 68 74 134 69 44 -2 64
-9 84 -28z"/>
<path d="M2474 801 c-77 -35 -115 -97 -115 -186 0 -56 24 -117 57 -146 77 -67
213 -68 275 -3 24 25 24 26 5 40 -18 12 -22 12 -41 -6 -67 -63 -188 -40 -226
43 -23 53 -24 102 -1 147 39 79 142 105 217 55 29 -20 40 -23 51 -14 21 17 1
44 -49 68 -53 26 -119 27 -173 2z"/>
<path d="M2820 619 l0 -199 25 0 25 0 0 194 0 194 -25 4 -25 5 0 -198z"/>
<path d="M3080 809 c-19 -5 -45 -18 -58 -27 -19 -15 -21 -20 -10 -35 12 -16
15 -16 53 3 24 12 59 20 92 20 67 0 100 -27 109 -87 l7 -43 -94 0 c-141 0
-196 -36 -185 -123 9 -75 61 -104 177 -98 14 0 43 12 63 26 l36 24 0 -24 c0
-20 5 -25 25 -25 l25 0 0 143 c0 156 -10 192 -62 231 -32 23 -123 31 -178 15z
m190 -244 c0 -24 -9 -44 -29 -67 -24 -27 -36 -32 -89 -36 -55 -4 -63 -2 -86
21 -33 33 -33 61 -1 92 22 23 32 25 115 25 l90 0 0 -35z"/>
<path d="M3845 808 c-88 -32 -130 -102 -123 -202 7 -116 85 -188 203 -188 80
-1 169 52 140 81 -7 7 -27 2 -59 -14 -60 -31 -96 -31 -153 -4 -40 19 -83 75
-83 109 0 6 57 10 165 10 l165 0 0 37 c0 53 -36 120 -80 149 -44 29 -128 40
-175 22z m142 -58 c32 -19 63 -66 63 -95 0 -13 -20 -15 -140 -15 -90 0 -140 4
-140 10 0 29 33 82 62 100 43 26 113 26 155 0z"/>
<path d="M4256 810 c-69 -22 -102 -90 -72 -148 20 -39 33 -45 125 -66 88 -20
108 -29 116 -56 22 -69 -111 -104 -208 -53 -22 11 -32 12 -43 2 -23 -19 -17
-29 31 -50 79 -35 209 -24 249 20 26 28 32 86 12 116 -21 32 -57 50 -131 65
-80 16 -105 33 -105 70 0 58 97 83 183 46 36 -14 47 -9 47 23 0 26 -149 49
-204 31z"/>
<path d="M4563 493 c-16 -6 -17 -55 -3 -69 8 -8 7 -26 0 -59 -11 -51 -9 -61
13 -52 14 5 51 118 49 151 -2 29 -28 42 -59 29z"/>
<path d="M6346 484 c-31 -30 -8 -69 36 -62 30 4 38 46 12 65 -23 17 -29 16
-48 -3z"/>
</g>
</svg>
